<svg width="14" height="14" viewBox="0 0 14 14" fill="none" xmlns="http://www.w3.org/2000/svg">
<path d="M0 3.88889H2.77778V13.3333H0V3.88889ZM1.38056 2.77778H1.365C0.536111 2.77778 0 2.16 0 1.38833C0 0.6 0.552778 0 1.39667 0C2.24167 0 2.76222 0.6 2.77778 1.38833C2.77778 2.15944 2.24167 2.77778 1.38056 2.77778ZM13.3333 13.3333H10.5556V8.27833C10.5556 7.05722 9.875 6.22389 8.78222 6.22389C7.94833 6.22389 7.49722 6.78611 7.27833 7.32944C7.19833 7.52389 7.22222 8.06167 7.22222 8.33333V13.3333H4.44444V3.88889H7.22222V5.34222C7.62278 4.72222 8.25 3.88889 9.85444 3.88889C11.8422 3.88889 13.3328 5.13889 13.3328 7.93L13.3333 13.3333Z" fill="white"/>
</svg>
