<svg width="17" height="14" viewBox="0 0 17 14" fill="none" xmlns="http://www.w3.org/2000/svg">
<path d="M16.3619 0.0265134C15.6828 0.347347 14.5269 0.949013 13.9461 1.06401C13.9236 1.06985 13.9053 1.07735 13.8836 1.08318C13.2061 0.414846 12.2778 0.000679986 11.2503 0.000679986C9.17944 0.000679986 7.50027 1.67985 7.50027 3.75068C7.50027 3.85985 7.4911 4.06068 7.50027 4.16735C4.8186 4.16735 2.86027 2.76818 1.39444 0.969847C1.1986 0.72818 0.99027 0.854013 0.946937 1.02568C0.849437 1.41401 0.816104 2.06318 0.816104 2.52651C0.816104 3.69401 1.7286 4.84068 3.14944 5.55151C2.88777 5.61901 2.59944 5.66735 2.29944 5.66735C1.9461 5.66735 1.53944 5.57485 1.1836 5.38818C1.05194 5.31901 0.76777 5.33818 0.851937 5.67485C1.18944 7.02401 2.72944 7.97151 4.10527 8.24735C3.79277 8.43151 3.1261 8.39401 2.81944 8.39401C2.7061 8.39401 2.31194 8.36735 2.05694 8.33568C1.82444 8.30735 1.46694 8.36735 1.7661 8.82068C2.4086 9.79318 3.86194 10.404 5.11277 10.4273C3.9611 11.3307 2.07777 11.6607 0.273604 11.6607C-0.0913962 11.6523 -0.0730629 12.0682 0.221104 12.2223C1.55194 12.9207 3.73194 13.334 5.28944 13.334C11.4811 13.334 15.0003 8.61485 15.0003 4.16651C15.0003 4.09485 14.9986 3.94485 14.9961 3.79401C14.9961 3.77901 15.0003 3.76485 15.0003 3.74985C15.0003 3.72735 14.9936 3.70568 14.9936 3.68318C14.9911 3.56985 14.9886 3.46401 14.9861 3.40901C15.4769 3.05485 16.2286 2.43985 16.6086 1.96901C16.7378 1.80901 16.6336 1.61485 16.4578 1.67568C16.0053 1.83318 15.2228 2.13818 14.7328 2.19651C15.7136 1.54735 16.1986 0.982347 16.6153 0.354847C16.7578 0.14068 16.5794 -0.0768199 16.3619 0.0265134Z" fill="white"/>
</svg>
